<?xml version="1.0" encoding="utf-8"?>
<!-- Generator: Adobe Illustrator 15.0.0, SVG Export Plug-In . SVG Version: 6.00 Build 0)  -->
<!DOCTYPE svg PUBLIC "-//W3C//DTD SVG 1.1//EN" "http://www.w3.org/Graphics/SVG/1.1/DTD/svg11.dtd">
<svg version="1.1" id="Ebene_1" xmlns="http://www.w3.org/2000/svg" xmlns:xlink="http://www.w3.org/1999/xlink" x="0px" y="0px"
	 width="400px" height="140px" viewBox="0 0 400 140" enable-background="new 0 0 400 140" xml:space="preserve">
<polygon fill="#668179" points="62.685,68.291 41.79,68.291 20.896,68.291 0,68.291 10.447,85.436 20.896,102.551 31.342,119.659 
	41.79,136.761 52.237,119.668 62.685,102.573 73.132,85.434 83.579,68.291 "/>
<polygon fill="#9D2237" points="94.026,51.291 83.579,34.291 83.575,34.291 73.13,17.149 73.132,17.121 62.685,0.013 52.237,17.102 
	41.79,34.194 31.342,51.242 20.896,68.291 41.79,68.291 62.685,68.291 83.579,68.291 104.474,68.291 "/>
<polyline fill="#CA2B47" points="52.237,17.095 41.79,34.191 62.685,34.191 62.684,34.189 62.68,34.189 62.682,34.187 
	52.237,17.095 "/>
<polyline fill="#9D2237" points="31.342,51.287 20.896,68.383 41.79,68.383 31.342,51.287 "/>
<polyline fill="#9D2237" points="62.685,0 52.237,17.095 73.126,17.095 73.127,17.093 73.128,17.095 73.132,17.095 62.685,0 "/>
<polyline fill="#9D2237" points="94.026,51.287 83.579,68.383 104.474,68.383 94.026,51.287 "/>
<polyline fill="#E93F5D" points="94.026,51.287 73.132,51.287 83.579,68.383 94.026,51.287 "/>
<polyline fill="#ED6279" points="62.685,34.191 41.79,34.191 52.237,51.287 62.685,34.191 "/>
<polyline fill="#E93F5D" points="52.237,51.287 52.237,51.287 41.79,68.383 62.685,68.383 52.237,51.287 "/>
<polyline fill="#CA2B47" points="83.579,34.191 62.685,34.191 73.132,51.287 83.579,34.191 "/>
<polygon fill="#1C1C1C" points="104.474,34.191 94.026,17.095 83.579,34.191 73.132,51.287 94.026,51.287 114.921,51.287 "/>
<polyline fill="#CA2B47" points="73.132,51.287 73.132,51.287 62.685,68.383 83.579,68.383 73.132,51.287 "/>
<polyline fill="#ED6279" points="73.132,51.287 73.132,51.287 52.237,51.287 62.685,68.383 73.132,51.287 "/>
<polyline fill="#ED6279" points="52.237,51.287 52.237,51.287 31.342,51.287 41.79,68.383 52.237,51.287 "/>
<polyline fill="#E93F5D" points="62.685,34.191 62.685,34.191 52.237,51.287 73.132,51.287 62.685,34.191 "/>
<polyline fill="#9D2237" points="41.79,34.191 31.342,51.287 52.237,51.287 41.79,34.191 "/>
<path fill="#E93F5D" d="M62.686,34.189h-0.002l0.001,0.002L62.686,34.189 M73.126,17.095H52.237l10.445,17.091L73.126,17.095
	 M73.132,17.095L73.132,17.095h-0.003l0.001,0.003L73.132,17.095"/>
<polyline fill="#9D2237" points="73.127,17.093 73.126,17.095 62.682,34.187 62.68,34.189 62.684,34.189 62.686,34.189 
	83.575,34.189 73.13,17.098 73.128,17.095 73.127,17.093 "/>
<polygon fill="#1C1C1C" points="136.429,33.582 142.726,33.582 153.624,62.645 164.571,33.582 170.868,33.582 170.868,68.167 
	166.508,68.167 166.508,39.395 166.412,39.395 155.61,68.167 151.687,68.167 140.885,39.395 140.788,39.395 140.788,68.167 
	136.429,68.167 "/>
<polygon fill="#1C1C1C" points="180.542,33.582 204.424,33.582 204.424,37.457 185.144,37.457 185.144,48.453 203.115,48.453 
	203.115,52.328 185.144,52.328 185.144,64.292 204.566,64.292 204.566,68.167 180.542,68.167 "/>
<path fill="#1C1C1C" d="M212.562,33.582h11.866c5.328,0,9.429,1.357,12.302,4.069c2.876,2.712,4.313,6.846,4.313,12.399
	c0,2.906-0.324,5.482-0.969,7.726c-0.647,2.245-1.647,4.135-3.004,5.667c-1.355,1.535-3.086,2.705-5.183,3.513
	c-2.103,0.808-4.587,1.211-7.461,1.211h-11.865V33.582z M217.162,64.292h7.654c0.516,0,1.162-0.039,1.938-0.122
	c0.773-0.079,1.599-0.274,2.472-0.58c0.87-0.307,1.733-0.752,2.59-1.333c0.856-0.582,1.623-1.371,2.304-2.374
	c0.678-1,1.233-2.251,1.67-3.754c0.438-1.501,0.652-3.317,0.652-5.449c0-2.066-0.203-3.916-0.605-5.547
	c-0.402-1.63-1.063-3.01-1.984-4.141c-0.92-1.131-2.107-2.003-3.563-2.616c-1.451-0.612-3.244-0.92-5.375-0.92h-7.75v26.836H217.162
	z"/>
<rect x="249.276" y="33.582" fill="#1C1C1C" width="4.603" height="34.585"/>
<polygon fill="#1C1C1C" points="263.752,33.582 287.633,33.582 287.633,37.457 268.352,37.457 268.352,48.453 286.324,48.453 
	286.324,52.328 268.352,52.328 268.352,64.292 287.775,64.292 287.775,68.167 263.752,68.167 "/>
<polygon fill="#1C1C1C" points="295.222,33.582 300.115,33.582 318.328,61.627 318.425,61.627 318.425,33.582 322.782,33.582 
	322.782,68.167 317.746,68.167 299.679,40.412 299.582,40.412 299.582,68.167 295.222,68.167 "/>
<rect x="94.942" y="84.753" fill="#1C1C1C" width="4.6" height="34.587"/>
<polygon fill="#1C1C1C" points="109.465,84.753 114.359,84.753 132.571,112.8 132.668,112.8 132.668,84.753 137.027,84.753 
	137.027,119.34 131.989,119.34 113.923,91.585 113.826,91.585 113.826,119.34 109.465,119.34 "/>
<polygon fill="#1C1C1C" points="146.708,84.753 169.425,84.753 169.425,88.629 151.31,88.629 151.31,99.625 167.198,99.625 
	167.198,103.499 151.31,103.499 151.31,119.34 146.708,119.34 "/>
<path fill="#1C1C1C" d="M173.996,102.047c0-2.355,0.345-4.624,1.041-6.806c0.693-2.181,1.736-4.108,3.124-5.788
	c1.389-1.68,3.116-3.02,5.183-4.021c2.066-0.998,4.472-1.5,7.218-1.5c2.744,0,5.149,0.502,7.217,1.5
	c2.065,1.002,3.795,2.344,5.186,4.021c1.389,1.68,2.428,3.607,3.121,5.788c0.695,2.182,1.045,4.448,1.045,6.806
	s-0.35,4.626-1.045,6.805c-0.693,2.181-1.732,4.112-3.121,5.789c-1.391,1.68-3.12,3.021-5.186,4.021
	c-2.067,0.998-4.473,1.499-7.217,1.499c-2.747,0-5.152-0.501-7.218-1.499c-2.066-1.002-3.794-2.342-5.183-4.021
	c-1.388-1.677-2.431-3.608-3.124-5.789C174.341,106.673,173.996,104.404,173.996,102.047z M178.597,102.047
	c0,1.743,0.225,3.463,0.678,5.157c0.452,1.696,1.163,3.224,2.131,4.579c0.969,1.355,2.211,2.445,3.729,3.268
	c1.518,0.826,3.325,1.236,5.426,1.236c2.098,0,3.906-0.41,5.425-1.236c1.518-0.82,2.761-1.912,3.729-3.268
	c0.971-1.355,1.681-2.883,2.133-4.579c0.454-1.694,0.68-3.414,0.68-5.157c0-1.744-0.226-3.464-0.68-5.158
	c-0.452-1.695-1.162-3.221-2.133-4.576c-0.968-1.357-2.211-2.448-3.729-3.271c-1.519-0.825-3.327-1.235-5.425-1.235
	c-2.101,0-3.908,0.41-5.426,1.235c-1.518,0.821-2.761,1.912-3.729,3.271c-0.968,1.355-1.679,2.881-2.131,4.576
	C178.822,98.583,178.597,100.303,178.597,102.047z"/>
<path fill="#1C1C1C" d="M214.168,84.753h16.277c3.262,0,5.827,0.817,7.7,2.448c1.872,1.632,2.81,3.833,2.81,6.609
	c0,2.101-0.478,3.939-1.429,5.521c-0.952,1.582-2.479,2.666-4.579,3.245v0.099c1.004,0.193,1.816,0.518,2.449,0.969
	c0.628,0.453,1.137,0.991,1.523,1.625c0.387,0.629,0.662,1.33,0.824,2.104s0.289,1.584,0.387,2.422
	c0.064,0.84,0.119,1.705,0.17,2.593c0.049,0.887,0.129,1.741,0.242,2.564c0.113,0.824,0.291,1.617,0.531,2.375
	c0.244,0.758,0.605,1.428,1.092,2.011h-5.137c-0.32-0.356-0.539-0.84-0.652-1.454c-0.114-0.611-0.186-1.298-0.219-2.059
	c-0.031-0.76-0.064-1.573-0.099-2.444c-0.03-0.873-0.127-1.729-0.287-2.567c-0.132-0.842-0.292-1.639-0.485-2.398
	c-0.193-0.758-0.5-1.421-0.92-1.984c-0.423-0.565-0.978-1.019-1.672-1.356c-0.693-0.339-1.592-0.511-2.688-0.511H218.77v14.775
	h-4.602V84.753L214.168,84.753z M228.363,100.689c1.063,0,2.082-0.08,3.049-0.241c0.969-0.162,1.816-0.478,2.543-0.942
	c0.729-0.469,1.31-1.1,1.744-1.892c0.437-0.791,0.653-1.816,0.653-3.075c0-1.709-0.483-3.124-1.452-4.24
	c-0.968-1.113-2.537-1.67-4.697-1.67H218.77v12.063h9.594V100.689z"/>
<polygon fill="#1C1C1C" points="249.869,84.753 256.164,84.753 267.062,113.818 278.011,84.753 284.309,84.753 284.309,119.34 
	279.947,119.34 279.947,90.566 279.852,90.566 269.051,119.34 265.127,119.34 254.324,90.566 254.228,90.566 254.228,119.34 
	249.869,119.34 "/>
<path fill="#1C1C1C" d="M303.479,84.753h5.086l13.515,34.587h-5.086l-3.779-10.414h-14.627l-3.876,10.414h-4.745L303.479,84.753z
	 M300.042,105.05h11.723l-5.766-16.131h-0.098L300.042,105.05z"/>
<polygon fill="#1C1C1C" points="331.281,88.629 319.755,88.629 319.755,84.753 347.411,84.753 347.411,88.629 335.886,88.629 
	335.886,119.34 331.281,119.34 "/>
<rect x="352.854" y="84.753" fill="#1C1C1C" width="4.604" height="34.587"/>
<polygon fill="#1C1C1C" points="367.626,84.753 372.229,84.753 372.229,101.999 389.764,84.753 395.721,84.753 381.141,98.704 
	396.303,119.34 390.49,119.34 377.99,101.852 372.229,107.229 372.229,119.34 367.626,119.34 "/>
<polyline fill="#668179" points="83.579,68.383 62.685,68.383 73.132,85.48 83.579,68.383 "/>
<polyline fill="#83A59C" points="31.342,85.48 10.447,85.48 20.896,102.574 31.342,85.48 "/>
<polyline fill="#668179" points="20.896,68.383 0,68.383 10.447,85.48 20.896,68.383 "/>
<polyline fill="#9DC2B9" points="20.896,68.383 20.896,68.383 10.447,85.48 31.342,85.48 20.896,68.383 "/>
<polyline fill="#83A59C" points="62.685,102.574 41.79,102.574 52.237,119.671 62.685,102.574 "/>
<polyline fill="#668179" points="52.237,119.671 31.342,119.671 41.79,136.768 52.237,119.671 "/>
<polyline fill="#AFCEC5" points="41.79,102.574 31.342,119.671 52.237,119.671 41.79,102.574 "/>
<polyline fill="#83A59C" points="52.237,85.48 31.342,85.48 41.79,102.574 52.237,85.48 "/>
<polyline fill="#9DC2B9" points="31.342,85.48 31.342,85.48 20.896,102.574 41.79,102.574 31.342,85.48 "/>
<polyline fill="#9DC2B9" points="41.79,68.383 31.342,85.48 52.237,85.48 41.79,68.383 "/>
<polyline fill="#83A59C" points="41.79,102.574 41.79,102.574 20.896,102.574 31.342,119.671 41.79,102.574 "/>
<polyline fill="#83A59C" points="41.79,68.383 41.79,68.383 20.896,68.383 31.342,85.48 41.79,68.383 "/>
<polyline fill="#AFCEC5" points="62.685,68.383 62.685,68.383 52.237,85.48 73.132,85.48 62.685,68.383 "/>
<polyline fill="#83A59C" points="73.132,85.48 52.237,85.48 62.685,102.574 73.132,85.48 "/>
<polyline fill="#668179" points="62.685,68.383 62.685,68.383 41.79,68.383 52.237,85.48 62.685,68.383 "/>
<polyline fill="#668179" points="52.237,85.48 52.237,85.48 41.79,102.574 62.685,102.574 52.237,85.48 "/>
</svg>
